<?xml version="1.0" standalone="no"?>
<!DOCTYPE svg PUBLIC "-//W3C//DTD SVG 20010904//EN"
 "http://www.w3.org/TR/2001/REC-SVG-20010904/DTD/svg10.dtd">
<svg version="1.0" xmlns="http://www.w3.org/2000/svg"
 width="310.000000pt" height="310.000000pt" viewBox="0 0 310.000000 310.000000"
 preserveAspectRatio="xMidYMid meet">
<metadata>
Created by potrace 1.11, written by Peter Selinger 2001-2013
</metadata>
<g transform="translate(0.000000,310.000000) scale(0.100000,-0.100000)"
fill="#000000" stroke="none">
<path d="M0 1550 l0 -1550 1550 0 1550 0 0 1550 0 1550 -1550 0 -1550 0 0
-1550z m1850 1376 c294 -68 507 -192 729 -422 210 -217 326 -430 387 -714 26
-120 27 -429 1 -550 -42 -198 -136 -407 -252 -561 -84 -113 -280 -301 -386
-372 -137 -91 -271 -150 -350 -155 -63 -4 -68 -2 -103 28 -81 72 -80 69 -87
325 -6 193 -10 241 -28 300 -11 38 -21 77 -21 86 0 27 72 107 110 123 19 8 73
26 120 40 126 38 198 82 241 146 63 93 99 227 99 370 0 97 -20 171 -73 273
l-42 82 0 132 c0 72 -3 135 -7 139 -12 11 -83 -13 -171 -57 -108 -54 -141 -60
-250 -43 -117 17 -314 17 -439 0 -114 -17 -132 -14 -258 48 -52 25 -111 47
-130 48 l-35 3 -5 -140 -5 -140 -47 -95 c-61 -121 -75 -202 -59 -337 6 -52 21
-122 32 -156 55 -164 128 -225 341 -286 93 -27 107 -35 147 -76 41 -44 43 -49
39 -94 -7 -74 -71 -196 -119 -228 l-39 -26 27 -17 c70 -43 93 -94 93 -205 0
-101 -13 -134 -74 -192 -51 -50 -57 -53 -106 -53 -128 0 -379 144 -573 329
-225 215 -364 463 -429 764 -31 145 -31 399 0 544 58 271 172 488 365 697 235
255 514 407 842 461 136 22 379 13 515 -19z m-454 -1202 c34 -23 54 -65 54
-113 0 -31 -7 -47 -34 -75 -30 -33 -38 -36 -89 -36 -49 0 -59 4 -86 31 -28 27
-31 37 -31 89 0 52 3 62 31 89 26 26 38 31 80 31 29 0 60 -7 75 -16z m462 -13
c32 -33 45 -75 35 -122 -3 -16 -19 -43 -35 -60 -25 -25 -37 -29 -83 -29 -49 0
-58 4 -90 35 -28 29 -35 43 -35 76 0 81 47 129 127 129 44 0 56 -4 81 -29z"/>
<path d="M1403 2760 c-217 -23 -455 -118 -638 -256 -400 -301 -572 -895 -404
-1399 103 -310 306 -559 558 -686 104 -52 183 -80 194 -70 5 5 7 26 5 47 l-3
39 -67 7 c-169 16 -290 100 -390 268 -28 47 -75 111 -104 143 -46 49 -54 64
-54 96 0 33 7 45 45 80 49 45 88 53 149 27 39 -16 164 -127 209 -185 40 -52
93 -73 172 -69 55 3 60 5 60 26 0 21 -10 27 -70 46 -94 30 -144 61 -245 151
-134 119 -183 208 -216 393 -30 169 -9 320 63 457 37 69 38 72 38 185 1 157
16 211 74 270 81 84 151 84 334 -3 l108 -51 97 12 c174 22 246 24 342 13 225
-27 214 -28 319 24 52 25 122 53 156 60 83 20 120 8 178 -54 61 -65 77 -121
77 -268 0 -112 0 -114 39 -192 62 -123 74 -183 68 -341 -6 -146 -21 -219 -67
-315 -74 -153 -259 -307 -417 -347 -26 -7 -51 -15 -55 -18 -4 -3 -1 -37 7 -75
10 -47 15 -131 15 -253 l0 -183 23 6 c67 20 239 114 326 180 222 167 381 429
447 735 26 119 26 391 0 510 -62 287 -223 562 -420 715 -275 213 -614 311
-953 275z"/>
<path d="M716 858 c26 -29 62 -76 79 -103 53 -82 86 -112 146 -130 71 -22 158
-29 189 -17 21 9 12 11 -46 11 -135 2 -206 42 -287 164 -53 80 -97 127 -119
127 -6 0 12 -24 38 -52z"/>
<path d="M1294 1672 c-20 -13 -35 -52 -29 -72 9 -30 60 -53 85 -40 22 12 40
41 40 64 0 38 -64 70 -96 48z"/>
<path d="M1730 1660 c-31 -31 -22 -78 20 -100 25 -13 76 10 85 40 6 20 -9 59
-29 72 -20 14 -56 8 -76 -12z"/>
</g>
</svg>
