<?xml version="1.0" encoding="iso-8859-1"?>
<!-- Generator: Adobe Illustrator 19.0.0, SVG Export Plug-In . SVG Version: 6.00 Build 0)  -->
<svg version="1.1" id="Layer_1" xmlns="http://www.w3.org/2000/svg" xmlns:xlink="http://www.w3.org/1999/xlink" x="0px" y="0px"
	 viewBox="0 0 511.999 511.999" style="enable-background:new 0 0 511.999 511.999;" xml:space="preserve">
<rect x="243.211" y="232.875" transform="matrix(0.9051 -0.4251 0.4251 0.9051 -87.6639 182.4786)" style="fill:#8DE0A8;" width="243.68" height="109.588"/>
<rect x="197.641" y="138.217" transform="matrix(0.9051 -0.4251 0.4251 0.9051 -52.76 149.5808)" style="fill:#4EBFED;" width="222.295" height="109.588"/>
<rect x="152.379" y="45.051" transform="matrix(0.9051 -0.4251 0.4251 0.9051 -18.7933 115.4685)" style="fill:#FF6F52;" width="193.913" height="109.588"/>
<circle style="fill:#415E72;" cx="260.175" cy="435.926" r="67.046"/>
<circle style="fill:#CFDCE5;" cx="260.175" cy="435.926" r="28.578"/>
<polyline style="fill:#3BA4BC;" points="452.02,186.267 193.936,205.154 231.452,289.872 "/>
<polyline style="fill:#E25749;" points="360.382,108.229 155.004,127.116 184.859,190.675 "/>
<path d="M290.25,437.131c-4.691-1.693-9.868,0.738-11.561,5.43c-1.773,4.912-5.35,8.839-10.077,11.058
	c-9.755,4.584-21.419,0.375-26.001-9.382c-4.582-9.755-0.374-21.42,9.382-26.002c7.126-3.349,15.521-2.112,21.38,3.149
	c3.712,3.332,9.423,3.025,12.753-0.688c3.332-3.712,3.024-9.422-0.688-12.754c-11.275-10.12-27.419-12.497-41.126-6.057
	c-18.77,8.817-26.868,31.259-18.052,50.03c6.398,13.618,19.963,21.619,34.099,21.617c5.347,0,10.779-1.146,15.93-3.566
	c9.093-4.271,15.978-11.826,19.387-21.275C297.373,444,294.942,438.823,290.25,437.131z"/>
<path d="M480.531,322.504l-155.71,73.14c-18.509-29.688-55.253-42.944-88.452-31.913L77.168,24.798
	c-1.488-3.168-4.673-5.192-8.175-5.192H13.25c-4.988,0-9.031,4.044-9.031,9.031s4.044,9.031,9.031,9.031h50.007l156.763,333.74
	c-32.221,20.088-45.111,61.661-28.576,96.862c12.94,27.547,40.383,43.731,68.977,43.729c10.817,0,21.805-2.318,32.228-7.213
	c18.393-8.64,32.321-23.925,39.218-43.04c5.864-16.253,6.027-33.615,0.641-49.757l119.522-56.141l8.768,18.666
	c1.538,3.274,4.789,5.194,8.18,5.194c1.286,0,2.593-0.276,3.834-0.859c4.516-2.121,6.456-7.5,4.335-12.014l-8.769-18.667
	l19.834-9.316c4.516-2.121,6.456-7.5,4.335-12.014C490.425,322.324,485.048,320.384,480.531,322.504z M314.875,455.616
	c-5.26,14.577-15.881,26.233-29.906,32.82c-28.956,13.599-63.576,1.109-77.176-27.845c-13.6-28.955-1.109-63.576,27.845-77.176
	c7.839-3.682,16.218-5.536,24.628-5.536c6.639,0,13.297,1.154,19.727,3.474c14.577,5.259,26.233,15.881,32.82,29.906
	C319.402,425.288,320.134,441.04,314.875,455.616z"/>
<path d="M324.866,376.175c1.286,0,2.593-0.276,3.834-0.859l92.195-43.305c4.514-2.121,6.456-7.5,4.335-12.014
	c-2.121-4.516-7.501-6.456-12.014-4.335l-92.195,43.304c-4.516,2.121-6.456,7.5-4.335,12.014
	C318.223,374.255,321.474,376.175,324.866,376.175z"/>
<path d="M506.921,281.625l-46.593-99.197c-1.019-2.169-2.856-3.843-5.109-4.655c-2.252-0.813-4.737-0.698-6.905,0.32
	l-212.392,99.764l-38.916-82.848l38.506-18.087c4.514-2.121,6.456-7.5,4.335-12.014c-2.122-4.516-7.501-6.454-12.014-4.335
	l-38.506,18.087l-38.914-82.848l159.174-74.765l38.914,82.848l-91.491,42.975c-4.516,2.121-6.456,7.5-4.335,12.014
	c2.121,4.516,7.501,6.453,12.014,4.335l117.185-55.043l30.969,65.93c1.538,3.274,4.789,5.194,8.18,5.194
	c1.286,0,2.593-0.276,3.834-0.859c4.516-2.121,6.456-7.5,4.335-12.014l-34.809-74.105c-2.121-4.514-7.5-6.453-12.014-4.335
	l-17.518,8.228L322.094,5.193c-2.121-4.514-7.5-6.454-12.014-4.335L134.558,83.304c-4.514,2.121-6.456,7.5-4.335,12.014
	l116.759,248.576c1.538,3.274,4.789,5.194,8.18,5.194c1.286,0,2.593-0.276,3.834-0.859c4.516-2.121,6.456-7.5,4.335-12.014
	l-19.732-42.008l204.218-95.924l38.914,82.848l-44.342,20.828c-4.516,2.121-6.456,7.5-4.335,12.014
	c2.121,4.516,7.502,6.453,12.014,4.335l52.516-24.668C507.101,291.519,509.042,286.14,506.921,281.625z"/>
<g>
</g>
<g>
</g>
<g>
</g>
<g>
</g>
<g>
</g>
<g>
</g>
<g>
</g>
<g>
</g>
<g>
</g>
<g>
</g>
<g>
</g>
<g>
</g>
<g>
</g>
<g>
</g>
<g>
</g>
</svg>
